<svg version="1.1" xmlns="http://www.w3.org/2000/svg" xmlns:xlink="http://www.w3.org/1999/xlink" width="125.34828" height="77.3857" viewBox="0,0,125.34828,77.3857"><g transform="translate(-180.4896,-164.4)"><g data-paper-data="{&quot;isPaintingLayer&quot;:true}" fill-rule="nonzero" stroke-linecap="butt" stroke-linejoin="miter" stroke-miterlimit="10" stroke-dasharray="" stroke-dashoffset="0" style="mix-blend-mode: normal"><g><g fill="#ffffff" stroke="#00091d" stroke-width="1.5"><g><path d="M282.3176,230.6993c-5.8135,0 -13.1058,-0.083 -20.1587,-0.1626c-5.7724,-0.0657 -11.2257,-0.1274 -15.2314,-0.1353c-0.5606,0.0212 -1.3315,0.0318 -2.245,0.0318c-9.9653,0 -37.2617,-1.23 -37.5364,-1.2426c-1.3527,0.0073 -3.0776,0.152 -4.9033,0.3059c-2.1979,0.1844 -4.6897,0.3947 -7.078,0.3947c-4.8994,0 -11.5727,-0.7623 -12.9527,-7.3567c-0.3177,-1.5192 0.5095,-3.8544 1.4669,-6.5579c0.7158,-2.0201 1.4555,-4.1085 1.482,-5.3816c0.0252,-1.1836 -0.1214,-2.6132 -0.2766,-4.1265c-0.3788,-3.6913 -0.8081,-7.8755 1.0754,-10.6147c2.0321,-2.9576 5.5681,-5.042 8.6875,-6.881c2.2696,-1.3382 4.4131,-2.602 5.5024,-3.9275c1.1437,-1.3918 2.0752,-2.921 2.9761,-4.4005c1.9558,-3.2109 3.8027,-6.2441 7.4781,-7.4973c1.4177,-0.4836 2.8056,-0.7185 4.2412,-0.7185c1.9903,0 3.8392,0.4485 5.7963,0.9229c2.3704,0.5745 4.8224,1.1689 8.0506,1.1689c1.4065,0 2.8196,-0.1121 4.3196,-0.3436c6.063,-0.9341 7.9783,-2.3061 10.0063,-3.759c2.123,-1.5205 4.3182,-3.0935 10.9093,-3.9871c1.4005,-0.1904 2.7857,-0.2866 4.1172,-0.2866c12.812,0 21.9632,9.0829 23.3159,23.1401c0.5487,5.7114 4.8569,7.6068 9.8452,9.8007c3.8292,1.6844 7.7892,3.4265 10.3407,7.1026c3.8134,5.4957 2.6756,10.3639 1.0502,13.48c-3.272,6.2693 -11.4447,11.0115 -19.0116,11.0287l-1.2672,0.0027z"/><path d="M258.0464,167.1403c-1.2764,0 -2.6033,0.0902 -3.9838,0.2773c-12.6077,1.7103 -8.2192,5.791 -20.8978,7.7434c-1.636,0.2521 -3.1161,0.3556 -4.4714,0.3556c-6.1055,0 -9.7046,-2.0918 -13.8476,-2.0918c-1.232,0 -2.5117,0.1845 -3.9202,0.6648c-4.9623,1.6917 -6.3854,7.1809 -10.007,11.588c-2.7612,3.3595 -10.762,5.8274 -14.1388,10.7401c-2.3983,3.4876 -0.5347,10.0647 -0.623,14.1972c-0.065,3.063 -3.4597,9.3734 -2.9708,11.7153c1.1285,5.3903 6.3423,6.5652 11.9788,6.5652c4.3062,0 8.8586,-0.6853 12.0264,-0.6992c0,0 27.4331,1.2412 37.4913,1.2412c0.8989,0 1.6572,-0.0106 2.247,-0.0318c8.846,0.0172 24.7641,0.2979 35.3888,0.2979c0.4306,0 0.8525,0 1.2651,-0.0014c11.0553,-0.0258 25.21,-11.3259 17.1468,-22.9464c-5.6444,-8.1328 -19.3095,-6.4577 -20.359,-17.3756c-1.1657,-12.1233 -8.8129,-22.2398 -22.3248,-22.2398M258.0464,167.1403v-1.9903v0c6.9168,0 12.8823,2.4938 17.2516,7.2107c3.9679,4.2831 6.4066,10.1026 7.0541,16.8283c0.4691,4.8828 3.8227,6.5958 9.2554,8.9854c3.7716,1.6592 8.046,3.5394 10.7574,7.4469c3.197,4.6061 3.5924,9.7589 1.1145,14.5077c-3.4299,6.5738 -11.9807,11.5448 -19.8913,11.5634l-1.2698,0.0013c-5.8182,0 -13.1138,-0.0829 -20.1693,-0.1625c-5.7532,-0.0657 -11.1879,-0.1267 -15.1857,-0.1354c-0.5891,0.0206 -1.356,0.0319 -2.2808,0.0319c-9.7835,0 -36.1963,-1.1809 -37.5304,-1.2413c-1.3547,0.0093 -3.0411,0.1506 -4.8257,0.3012c-2.2172,0.1871 -4.7309,0.3981 -7.161,0.3981c-3.0225,0 -12.2208,0 -13.9258,-8.1482c-0.3749,-1.7919 0.4949,-4.2485 1.5026,-7.0932c0.6568,-1.855 1.4018,-3.958 1.425,-5.0719c0.0239,-1.1212 -0.12,-2.521 -0.272,-4.0031c-0.3967,-3.8617 -0.8458,-8.239 1.2446,-11.2788c2.1575,-3.1393 5.7943,-5.2835 9.0033,-7.1755c2.1913,-1.2924 4.2611,-2.5124 5.239,-3.7019c1.0986,-1.3375 2.0122,-2.8361 2.8952,-4.2864c1.9617,-3.2216 3.9905,-6.5519 8.0075,-7.9212c1.5225,-0.5195 3.0152,-0.7716 4.5623,-0.7716c2.109,0 4.0137,0.4618 6.0305,0.9507c2.314,0.5606 4.7063,1.1411 7.8164,1.1411c1.3547,0 2.7181,-0.1082 4.1683,-0.3317c5.8275,-0.8976 7.6499,-2.2026 9.5785,-3.5845c2.2218,-1.5915 4.5192,-3.2368 11.3544,-4.1643c1.4456,-0.1957 2.8753,-0.2952 4.2512,-0.2952z"/></g><path d="M212.275,189.4438c-4.3029,-1.013 -7.7706,-0.0617 -11.3053,2.5077c-2.6006,1.8894 -5.0314,4.4403 -8.0141,5.7227c-0.485,0.2076 -1.1186,-0.41 -0.6223,-0.8061c6.1578,-4.9166 11.8838,-12.1074 20.5886,-9.7629c1.5119,0.4067 0.873,2.6955 -0.6469,2.3386z"/><path d="M199.329,195.8743c-0.3443,0.0305 -0.408,-0.5161 -0.0822,-0.5964c6.7602,-1.63 12.0975,-6.187 19.2757,-3.735c1.3115,0.4478 0.7529,2.5302 -0.5739,2.0844c-3.7019,-1.2426 -7.1225,-1.2061 -10.77,0.1957c-2.6238,1.0098 -5.042,1.8039 -7.8496,2.0513z"/><path d="M270.871,211.0534c2.0407,-1.7733 4.6645,-3.7616 5.7525,-6.3058c0.7908,-1.8437 1.1471,-3.9792 0.481,-5.9297c-0.6124,-1.7985 -1.77,-2.3916 -2.8089,-3.7403c-1.4191,-1.839 -2.7745,-6.7809 -1.4967,-8.9502c0.3941,-0.6661 1.2545,-0.5752 1.6652,0c0.9447,1.3202 0.6428,3.9971 0.8399,5.5289c0.3436,2.6577 3.1048,4.161 3.4259,6.9414c0.6435,5.5329 -2.9987,9.9433 -6.9792,13.3354c-0.6064,0.5161 -1.4874,-0.351 -0.8797,-0.8797z"/><path d="M268.754,216.1584c-0.3914,0.1115 -0.6594,-0.4843 -0.2806,-0.6707c2.7764,-1.3514 6.2892,-2.7313 8.3936,-5.0739c1.1132,-1.2405 2.4321,-2.919 2.4891,-4.6864c0.0312,-0.946 -0.0882,-1.8177 0.1387,-2.7405c0.1645,-0.6648 1.1351,-0.7955 1.4642,-0.1904c1.4018,2.5873 -1.0224,6.0809 -2.9038,7.8018c-2.7718,2.5369 -5.6875,4.5285 -9.3012,5.5601z"/><path d="M253.5637,171.8877c-3.8459,0.1778 -6.0597,2.2443 -9.1838,4.1291c-2.58,1.5584 -4.973,2.3983 -7.886,3.0955c-0.0597,0.014 -0.0803,-0.0716 -0.0233,-0.0895c3.6641,-1.2001 6.9514,-3.4936 10.0834,-5.665c2.1249,-1.4747 4.3235,-2.9568 7.0097,-2.6988c0.7788,0.0757 0.802,1.1915 0,1.2287z"/></g><g stroke="none" stroke-width="0.66342"><g><path d="M234.5328,240.7905c-0.3158,0 -0.6243,-0.0086 -0.9261,-0.0245c-2.1754,-0.1201 -4.3229,-0.9135 -6.3994,-1.6804c-2.2928,-0.8479 -4.6638,-1.7243 -7.1092,-1.7243c-0.1115,0 -0.2236,0.0014 -0.3357,0.0053c-1.3554,0.0445 -2.8792,0.345 -4.3534,0.6349c-1.6618,0.3278 -3.3808,0.6668 -4.9624,0.6668c-2.6782,0 -4.5371,-0.9998 -5.6835,-3.0551c-2.2244,-3.9891 -0.4219,-5.6258 2.8507,-8.5986c1.0051,-0.9128 2.1442,-1.9478 3.4505,-3.276c0.2932,-0.2978 0.7185,-1.1556 1.1696,-2.0645c1.7368,-3.5015 4.9697,-10.0203 13.0588,-10.0203c6.2255,0 11.3471,5.2125 14.7365,8.6623c0.7776,0.7908 1.4496,1.4747 2.0002,1.9564c3.071,2.6868 7.4104,10.5955 5.0493,13.9292c-2.0334,2.8719 -7.9763,4.5888 -12.5459,4.5888v0z" fill="#5f8ba5"/><path d="M225.292,212.6482c-9.7092,0 -11.7624,10.0031 -13.5185,11.7877c-5.6417,5.7373 -8.5469,6.3801 -6.142,10.6924c1.092,1.9584 2.8136,2.5448 4.8145,2.5448c2.866,0 6.3045,-1.2034 9.2832,-1.3009c0.1228,-0.004 0.2455,-0.006 0.3682,-0.006c4.9047,0 9.209,3.1672 13.5637,3.406c0.2832,0.0153 0.5745,0.0232 0.871,0.0232c4.3693,0 9.9586,-1.6619 11.7339,-4.1696c1.8968,-2.6782 -1.9113,-9.9964 -4.8927,-12.605c-2.9814,-2.6085 -8.8732,-10.3726 -16.0813,-10.3726M225.292,212.6482v-1.9902v0c6.6435,0 11.9409,5.3916 15.4464,8.9595c0.7636,0.7775 1.4231,1.4482 1.9452,1.9053c3.0192,2.6411 8.1176,11.1435 5.2065,15.2527c-2.3027,3.2548 -8.6012,5.0102 -13.358,5.0102c-0.3337,0 -0.6634,-0.0093 -0.9805,-0.0266c-2.3246,-0.1273 -4.5438,-0.9473 -6.6899,-1.7408c-2.3127,-0.8545 -4.4967,-1.6618 -6.7643,-1.6618c-0.1008,0 -0.2017,0.0013 -0.3032,0.0046c-1.2751,0.0425 -2.6921,0.3218 -4.1934,0.617c-1.709,0.337 -3.4764,0.6853 -5.1548,0.6853c-3.0285,0 -5.2331,-1.2001 -6.5526,-3.5659c-2.6093,-4.6791 -0.2349,-6.8352 3.0511,-9.8199c0.9957,-0.9043 2.1236,-1.9286 3.4066,-3.2336c0.2017,-0.2215 0.6396,-1.1039 0.9912,-1.8124c1.8323,-3.6959 5.2436,-10.5736 13.9497,-10.5736z" fill="#000000"/></g><path d="M220.7774,224.6946c1.5697,0.4459 3.0259,0.9759 4.3123,2.0049c0.6554,0.5248 -0.2953,1.5113 -0.9341,0.9341c-2.3751,-2.1409 -7.0283,-1.6586 -8.6869,-4.5471c-0.0544,-0.0969 0.0365,-0.2335 0.1493,-0.1944c1.7349,0.5938 3.3868,1.2983 5.1594,1.8025z" fill="#231f20"/><path d="M222.1852,227.2952c0.469,0.2866 0.0425,1.0224 -0.4312,0.7384c-2.2185,-1.3315 -6.7583,-0.7191 -7.6008,-3.7781c-0.0703,-0.2515 0.2879,-0.5016 0.4677,-0.272c1.0741,1.3646 2.1369,1.9537 3.8432,2.2894c1.2578,0.2461 2.6013,0.3397 3.7211,1.0223z" fill="#231f20"/></g></g></g></g></svg>